<?xml version="1.0" encoding="utf-8"?>
<!-- Generator: Adobe Illustrator 24.1.3, SVG Export Plug-In . SVG Version: 6.00 Build 0)  -->
<svg version="1.1" xmlns="http://www.w3.org/2000/svg" xmlns:xlink="http://www.w3.org/1999/xlink" x="0px" y="0px"
	 viewBox="0 0 1080 1080" style="enable-background:new 0 0 1080 1080;" xml:space="preserve">
<style type="text/css">
	.st0{fill:#494949;}
	.st1{fill:#991915;}
	.st2{fill:#329967;}
	.st3{fill:#02679A;}
</style>
<g id="Capa_2">
	<path id="path871-1-8" class="st0" d="M210.15,609.31c0,10.31-18.75,18.75-18.75,18.75s-18.75-8.44-18.75-18.75 M191.4,515.57
		c-7.68-0.2-13.86-6.38-14.06-14.06c0.01-7.77,6.31-14.06,14.07-14.05c7.76,0.01,14.04,6.29,14.05,14.05
		C205.27,509.19,199.09,515.38,191.4,515.57z M222.34,559.63c7.5-35.62-5.62-100.3-30.93-100.3c-25.31,0-39.37,62.8-31.87,98.42
		l-15,32.81h25.31l2.81,9.37h37.49c1.87-2.81,0.94-4.69,2.81-9.37h25.31L222.34,559.63z"/>
</g>
<g id="Capa_6">
	<path id="path4005-4-5_1_" class="st1" d="M190.63,383.97c-53.93,0-101.57,27.14-130.09,68.54l30.55,17.7
		c22.34-30.9,58.6-51.01,99.54-51.01s77.2,20.12,99.54,51.01l30.55-17.7C292.2,411.11,244.56,383.97,190.63,383.97z"/>
</g>
<g id="Capa_4">
	<path id="path3918-2-3" class="st2" d="M337.36,483.57l-30.82,17.83c4.53,12.85,7,26.68,7,41.08
		c0,62.07-45.82,113.46-105.36,122.01v35.53c78.98-8.77,140.47-76,140.47-157.55C348.66,521.67,344.64,501.79,337.36,483.57z"/>
</g>
<g id="Capa_5">
	<path id="path4003-1-4_1_" class="st3" d="M43.9,483.57c-7.28,18.22-11.3,38.1-11.3,58.92c0,81.55,61.49,148.78,140.47,157.55
		V664.5c-59.54-8.56-105.36-59.94-105.36-122.01c0-14.4,2.47-28.23,7-41.08L43.9,483.57z"/>
</g>
<g id="Capa_7">
	<g>
		<path d="M375.69,436.31h16.81c1.74,0,3.19,0.39,4.35,1.18c1.16,0.79,1.92,1.84,2.28,3.14l11.84,44.99
			c0.39,1.46,0.79,3.02,1.18,4.68c0.39,1.66,0.69,3.4,0.89,5.21c0.39-1.85,0.83-3.6,1.3-5.24c0.47-1.64,0.93-3.19,1.36-4.65
			l13.97-44.99c0.35-1.1,1.11-2.1,2.28-2.99c1.16-0.89,2.57-1.33,4.23-1.33h5.92c1.74,0,3.17,0.39,4.29,1.15
			c1.12,0.77,1.9,1.83,2.34,3.17l13.85,44.99c0.43,1.38,0.89,2.85,1.36,4.41c0.47,1.56,0.89,3.23,1.24,5
			c0.31-1.74,0.64-3.39,0.98-4.97c0.33-1.58,0.68-3.06,1.04-4.44l11.84-44.99c0.31-1.14,1.07-2.15,2.25-3.02
			c1.18-0.87,2.61-1.3,4.26-1.3h15.75l-26.64,86.26h-18.12l-16.22-53.46c-0.28-0.83-0.56-1.74-0.86-2.72
			c-0.3-0.99-0.58-2.03-0.86-3.14c-0.28,1.11-0.56,2.15-0.86,3.14c-0.3,0.99-0.58,1.89-0.86,2.72l-16.46,53.46h-18.12L375.69,436.31
			z"/>
		<path d="M530.92,522.57h-20.13v-86.26h20.13V522.57z"/>
		<path d="M566.91,471.24h3.2c2.96,0,5.09-0.93,6.39-2.78l19.42-28.18c1.07-1.54,2.28-2.58,3.64-3.14c1.36-0.55,3.03-0.83,5-0.83
			h17.41l-25.58,34.87c-0.91,1.26-1.86,2.31-2.84,3.14c-0.99,0.83-1.99,1.52-3.02,2.07c1.5,0.55,2.87,1.31,4.11,2.28
			c1.24,0.97,2.38,2.26,3.4,3.88l26.05,40.02h-17.88c-1.14,0-2.12-0.08-2.93-0.24c-0.81-0.16-1.51-0.39-2.1-0.71
			c-0.59-0.32-1.1-0.7-1.54-1.15c-0.43-0.45-0.85-0.98-1.24-1.57l-19.54-30.02c-0.71-1.1-1.61-1.88-2.69-2.34
			c-1.09-0.45-2.56-0.68-4.41-0.68h-4.85v36.7H546.9v-86.26h20.01V471.24z"/>
		<path d="M653.35,522.57h-20.13v-86.26h20.13V522.57z"/>
		<path d="M715.72,487.82c0.73,1.62,1.43,3.28,2.1,4.98c0.67-1.74,1.38-3.43,2.13-5.07c0.75-1.64,1.52-3.23,2.31-4.77l22.14-43.62
			c0.39-0.75,0.8-1.33,1.21-1.75c0.41-0.41,0.88-0.72,1.39-0.92c0.51-0.2,1.09-0.3,1.75-0.3c0.65,0,1.41,0,2.28,0h15.27v86.2h-17.64
			v-49.61c0-2.41,0.12-5.01,0.36-7.81l-22.85,44.34c-0.71,1.38-1.67,2.43-2.87,3.14c-1.2,0.71-2.57,1.07-4.11,1.07h-2.72
			c-1.54,0-2.91-0.35-4.11-1.07c-1.2-0.71-2.16-1.76-2.87-3.14l-22.97-44.4c0.16,1.38,0.28,2.75,0.36,4.11
			c0.08,1.36,0.12,2.61,0.12,3.76v49.61h-17.64v-86.2h15.27c0.87,0,1.63,0,2.28,0c0.65,0,1.23,0.1,1.75,0.3
			c0.51,0.2,0.98,0.5,1.39,0.92s0.82,1,1.21,1.75l22.2,43.8C714.23,484.64,714.99,486.2,715.72,487.82z"/>
		<path d="M836.04,436.31v15.39h-35.4v20.13h27.11v14.8h-27.11v20.54h35.4v15.39h-55.53v-86.26H836.04z"/>
		<path d="M925.67,479.41c0,6.24-1.08,11.99-3.23,17.26c-2.15,5.27-5.18,9.83-9.09,13.68c-3.91,3.85-8.61,6.85-14.12,9
			c-5.51,2.15-11.61,3.23-18.32,3.23h-33.51v-86.26h33.51c6.71,0,12.82,1.09,18.32,3.26c5.51,2.17,10.21,5.17,14.12,9
			c3.91,3.83,6.94,8.38,9.09,13.65C924.6,467.48,925.67,473.22,925.67,479.41z M905.19,479.41c0-4.26-0.55-8.11-1.66-11.54
			c-1.11-3.43-2.69-6.34-4.77-8.73c-2.07-2.39-4.61-4.22-7.61-5.51c-3-1.28-6.41-1.92-10.24-1.92h-13.38v55.47h13.38
			c3.83,0,7.24-0.64,10.24-1.92c3-1.28,5.54-3.12,7.61-5.51c2.07-2.39,3.66-5.3,4.77-8.73
			C904.64,487.58,905.19,483.72,905.19,479.41z"/>
		<path d="M957.17,522.57h-20.13v-86.26h20.13V522.57z"/>
		<path d="M1053.43,522.57h-15.51c-1.74,0-3.17-0.4-4.29-1.21c-1.12-0.81-1.9-1.84-2.34-3.11l-5.09-15.04h-32.8l-5.09,15.04
			c-0.4,1.11-1.17,2.1-2.31,2.99c-1.15,0.89-2.55,1.33-4.2,1.33h-15.63l33.39-86.26h20.48L1053.43,522.57z M998.02,489.6h23.56
			l-7.93-23.62c-0.51-1.5-1.12-3.27-1.81-5.3c-0.69-2.03-1.37-4.23-2.04-6.6c-0.63,2.41-1.28,4.64-1.95,6.69
			c-0.67,2.05-1.3,3.83-1.89,5.33L998.02,489.6z"/>
		<path d="M405.67,547.52c-0.2,0.39-0.5,0.58-0.89,0.58c-0.3,0-0.68-0.21-1.15-0.63c-0.47-0.42-1.1-0.89-1.9-1.4
			c-0.8-0.51-1.8-0.98-3-1.42c-1.2-0.43-2.68-0.65-4.44-0.65c-1.76,0-3.31,0.25-4.64,0.75c-1.34,0.5-2.46,1.18-3.36,2.05
			c-0.9,0.87-1.59,1.87-2.06,3.01c-0.47,1.14-0.7,2.33-0.7,3.59c0,1.64,0.35,2.99,1.04,4.06c0.7,1.07,1.61,1.98,2.75,2.73
			c1.14,0.75,2.43,1.38,3.88,1.9c1.45,0.51,2.94,1.02,4.46,1.52c1.53,0.5,3.02,1.05,4.46,1.66c1.45,0.6,2.74,1.36,3.88,2.27
			c1.14,0.91,2.06,2.03,2.75,3.36c0.7,1.33,1.04,2.99,1.04,4.97c0,2.03-0.35,3.93-1.04,5.72c-0.69,1.79-1.7,3.34-3.02,4.66
			c-1.32,1.32-2.94,2.36-4.85,3.13c-1.91,0.76-4.1,1.14-6.56,1.14c-3.19,0-5.93-0.56-8.23-1.69c-2.3-1.13-4.32-2.67-6.05-4.63
			l0.96-1.5c0.27-0.34,0.59-0.51,0.96-0.51c0.21,0,0.47,0.14,0.79,0.41c0.32,0.27,0.71,0.61,1.16,1.01c0.46,0.4,1,0.83,1.64,1.3
			c0.64,0.47,1.38,0.9,2.22,1.3c0.84,0.4,1.81,0.73,2.91,1.01c1.09,0.27,2.34,0.41,3.73,0.41c1.92,0,3.63-0.29,5.13-0.87
			s2.78-1.37,3.81-2.37c1.04-1,1.83-2.19,2.38-3.57c0.55-1.38,0.82-2.85,0.82-4.42c0-1.71-0.35-3.11-1.04-4.22
			c-0.7-1.1-1.61-2.03-2.75-2.77c-1.14-0.74-2.43-1.36-3.88-1.86c-1.45-0.5-2.94-0.99-4.46-1.47c-1.53-0.48-3.02-1.01-4.46-1.61
			c-1.45-0.59-2.74-1.35-3.88-2.27c-1.14-0.92-2.06-2.07-2.75-3.45c-0.69-1.38-1.04-3.1-1.04-5.17c0-1.62,0.31-3.18,0.92-4.68
			c0.62-1.5,1.52-2.83,2.7-3.98c1.19-1.15,2.65-2.07,4.39-2.77c1.74-0.69,3.73-1.04,5.97-1.04c2.51,0,4.76,0.4,6.75,1.2
			c2,0.8,3.81,2.01,5.45,3.65L405.67,547.52z"/>
		<path d="M449.05,577.95c0.14-0.36,0.28-0.72,0.43-1.08c0.15-0.35,0.31-0.69,0.49-1.01l18.99-33.57c0.18-0.3,0.36-0.48,0.55-0.55
			s0.43-0.1,0.75-0.1h2.42v48.33h-3.07v-41.19c0-0.59,0.03-1.22,0.1-1.88l-19.02,33.78c-0.32,0.59-0.77,0.89-1.37,0.89h-0.55
			c-0.57,0-1.02-0.3-1.37-0.89l-19.54-33.81c0.07,0.66,0.1,1.3,0.1,1.91v41.19h-3.04v-48.33h2.39c0.32,0,0.57,0.03,0.77,0.1
			c0.19,0.07,0.38,0.25,0.56,0.55l19.5,33.61C448.5,576.54,448.8,577.22,449.05,577.95z"/>
		<path d="M530.37,589.97h-2.7c-0.32,0-0.58-0.09-0.79-0.26s-0.36-0.39-0.48-0.67l-5.7-14.04h-23.74l-5.67,14.04
			c-0.09,0.25-0.25,0.47-0.48,0.65c-0.23,0.18-0.5,0.27-0.82,0.27h-2.66l19.78-48.33h3.48L530.37,589.97z M498.02,572.41h21.65
			l-9.87-24.42c-0.16-0.39-0.32-0.82-0.48-1.31c-0.16-0.49-0.32-1.01-0.48-1.55c-0.16,0.55-0.32,1.06-0.48,1.55
			c-0.16,0.49-0.32,0.94-0.48,1.35L498.02,572.41z"/>
		<path d="M548.47,587h22.92v2.97h-26.4v-48.33h3.48V587z"/>
		<path d="M590.38,587h22.92v2.97h-26.4v-48.33h3.48V587z"/>
		<path d="M653.46,570.5v19.47h-3.48v-48.33h12.47c5.67,0,9.94,1.24,12.82,3.72c2.88,2.48,4.32,6.02,4.32,10.62
			c0,2.12-0.39,4.06-1.18,5.84c-0.79,1.78-1.92,3.31-3.4,4.59c-1.48,1.29-3.28,2.29-5.4,3.01c-2.12,0.72-4.51,1.08-7.17,1.08H653.46
			z M653.46,567.7h8.98c2.14,0,4.05-0.3,5.74-0.89c1.69-0.59,3.11-1.41,4.29-2.46c1.17-1.05,2.07-2.28,2.7-3.71
			c0.63-1.42,0.94-2.98,0.94-4.66c0-3.71-1.14-6.57-3.43-8.57c-2.29-2-5.7-3.01-10.23-3.01h-8.98V567.7z"/>
		<path d="M700.97,568.11v21.86h-3.48v-48.33h12.33c5.58,0,9.74,1.08,12.5,3.23c2.75,2.15,4.13,5.31,4.13,9.48
			c0,1.84-0.32,3.53-0.96,5.05c-0.64,1.53-1.55,2.86-2.75,4.01c-1.2,1.15-2.64,2.1-4.32,2.83c-1.68,0.74-3.59,1.22-5.7,1.45
			c0.55,0.34,1.04,0.8,1.47,1.37l16.63,20.9h-3.04c-0.36,0-0.68-0.07-0.94-0.2c-0.26-0.14-0.52-0.36-0.77-0.68l-15.47-19.61
			c-0.39-0.5-0.8-0.85-1.25-1.06c-0.44-0.21-1.13-0.31-2.07-0.31H700.97z M700.97,565.52h8.4c2.14,0,4.06-0.26,5.76-0.77
			c1.7-0.51,3.13-1.25,4.3-2.2c1.17-0.96,2.07-2.11,2.68-3.45c0.61-1.34,0.92-2.86,0.92-4.54c0-3.44-1.13-5.99-3.38-7.65
			c-2.25-1.66-5.53-2.49-9.84-2.49h-8.85V565.52z"/>
		<path d="M788.17,565.79c0,3.73-0.56,7.12-1.67,10.16c-1.12,3.04-2.69,5.64-4.71,7.79c-2.03,2.15-4.45,3.81-7.27,4.99
			c-2.82,1.17-5.95,1.76-9.39,1.76c-3.39,0-6.5-0.59-9.33-1.76c-2.82-1.17-5.25-2.83-7.27-4.99c-2.03-2.15-3.6-4.75-4.73-7.79
			c-1.13-3.04-1.69-6.43-1.69-10.16c0-3.71,0.56-7.09,1.69-10.13c1.13-3.04,2.7-5.64,4.73-7.79c2.03-2.15,4.45-3.82,7.27-5
			c2.82-1.18,5.93-1.78,9.33-1.78c3.44,0,6.57,0.59,9.39,1.76c2.82,1.17,5.25,2.84,7.27,5c2.03,2.16,3.6,4.76,4.71,7.8
			C787.61,558.7,788.17,562.08,788.17,565.79z M784.55,565.79c0-3.37-0.47-6.4-1.4-9.09c-0.93-2.69-2.25-4.96-3.94-6.83
			c-1.7-1.87-3.74-3.3-6.13-4.29c-2.39-0.99-5.04-1.49-7.96-1.49c-2.87,0-5.49,0.5-7.87,1.49c-2.38,0.99-4.43,2.42-6.15,4.29
			c-1.72,1.87-3.05,4.14-4,6.83c-0.95,2.69-1.42,5.72-1.42,9.09c0,3.39,0.47,6.43,1.42,9.1c0.94,2.68,2.28,4.95,4,6.81
			c1.72,1.87,3.77,3.29,6.15,4.27c2.38,0.98,5,1.47,7.87,1.47c2.91,0,5.57-0.49,7.96-1.47c2.39-0.98,4.43-2.4,6.13-4.27
			c1.7-1.87,3.01-4.14,3.94-6.81C784.08,572.22,784.55,569.18,784.55,565.79z"/>
		<path d="M823.17,573.85c0,2.71-0.34,5.1-1.01,7.17c-0.67,2.07-1.63,3.81-2.87,5.23c-1.24,1.41-2.76,2.48-4.54,3.19
			c-1.79,0.72-3.8,1.08-6.03,1.08c-1.02,0-2.06-0.08-3.11-0.24c-1.05-0.16-2.13-0.41-3.24-0.75c0.05-0.32,0.09-0.64,0.12-0.96
			c0.03-0.32,0.06-0.64,0.09-0.96c0.05-0.2,0.13-0.39,0.26-0.55c0.12-0.16,0.35-0.24,0.67-0.24c0.2,0,0.45,0.04,0.73,0.12
			c0.28,0.08,0.63,0.17,1.02,0.26c0.4,0.09,0.85,0.18,1.37,0.26c0.51,0.08,1.11,0.12,1.79,0.12c1.73,0,3.29-0.27,4.68-0.82
			c1.39-0.55,2.57-1.38,3.55-2.51c0.98-1.13,1.72-2.55,2.24-4.27s0.77-3.74,0.77-6.06v-32.28h3.52V573.85z"/>
		<path d="M873.45,541.64v2.9H848v19.54h21.18v2.83H848v20.15h25.45v2.9h-28.96v-48.33H873.45z"/>
		<path d="M926.94,581.84c0.23,0,0.42,0.08,0.58,0.24l1.37,1.47c-1,1.07-2.1,2.03-3.28,2.89c-1.18,0.85-2.48,1.58-3.88,2.19
			c-1.4,0.6-2.94,1.07-4.61,1.4c-1.67,0.33-3.51,0.49-5.52,0.49c-3.35,0-6.42-0.59-9.2-1.76c-2.79-1.17-5.18-2.83-7.17-4.99
			c-1.99-2.15-3.55-4.75-4.66-7.8c-1.12-3.05-1.67-6.44-1.67-10.18c0-3.67,0.57-7.01,1.72-10.04c1.15-3.03,2.77-5.63,4.85-7.8
			c2.08-2.17,4.58-3.86,7.48-5.05c2.9-1.2,6.11-1.79,9.61-1.79c1.75,0,3.36,0.13,4.82,0.39c1.46,0.26,2.82,0.64,4.08,1.13
			c1.26,0.49,2.45,1.1,3.57,1.83c1.12,0.73,2.21,1.57,3.28,2.53l-1.06,1.54c-0.18,0.27-0.47,0.41-0.85,0.41
			c-0.21,0-0.47-0.12-0.79-0.36c-0.32-0.24-0.72-0.53-1.21-0.89c-0.49-0.35-1.08-0.74-1.78-1.16c-0.7-0.42-1.52-0.81-2.48-1.16
			c-0.96-0.35-2.06-0.65-3.31-0.89c-1.25-0.24-2.68-0.36-4.27-0.36c-2.94,0-5.64,0.51-8.09,1.52c-2.46,1.01-4.58,2.46-6.35,4.34
			c-1.78,1.88-3.16,4.16-4.15,6.83c-0.99,2.68-1.49,5.68-1.49,9c0,3.42,0.49,6.47,1.47,9.15c0.98,2.69,2.33,4.96,4.06,6.81
			c1.73,1.86,3.77,3.28,6.13,4.27c2.36,0.99,4.91,1.49,7.67,1.49c1.73,0,3.27-0.11,4.63-0.34c1.35-0.23,2.6-0.57,3.74-1.02
			c1.14-0.46,2.2-1.01,3.18-1.67c0.98-0.66,1.95-1.43,2.9-2.32c0.11-0.09,0.22-0.16,0.32-0.22
			C926.68,581.87,926.8,581.84,926.94,581.84z"/>
		<path d="M978.41,541.64v2.97h-16.98v45.36h-3.48v-45.36h-17.08v-2.97H978.41z"/>
		<path d="M1017.14,547.52c-0.2,0.39-0.5,0.58-0.89,0.58c-0.3,0-0.68-0.21-1.15-0.63c-0.47-0.42-1.1-0.89-1.9-1.4
			c-0.8-0.51-1.8-0.98-3-1.42c-1.2-0.43-2.68-0.65-4.44-0.65c-1.76,0-3.31,0.25-4.64,0.75c-1.34,0.5-2.46,1.18-3.36,2.05
			c-0.9,0.87-1.59,1.87-2.06,3.01c-0.47,1.14-0.7,2.33-0.7,3.59c0,1.64,0.35,2.99,1.04,4.06c0.7,1.07,1.61,1.98,2.75,2.73
			c1.14,0.75,2.43,1.38,3.88,1.9c1.45,0.51,2.94,1.02,4.46,1.52c1.53,0.5,3.02,1.05,4.46,1.66c1.45,0.6,2.74,1.36,3.88,2.27
			c1.14,0.91,2.06,2.03,2.75,3.36c0.7,1.33,1.04,2.99,1.04,4.97c0,2.03-0.35,3.93-1.04,5.72s-1.7,3.34-3.02,4.66
			c-1.32,1.32-2.94,2.36-4.85,3.13c-1.91,0.76-4.1,1.14-6.56,1.14c-3.19,0-5.93-0.56-8.23-1.69c-2.3-1.13-4.32-2.67-6.05-4.63
			l0.96-1.5c0.27-0.34,0.59-0.51,0.96-0.51c0.21,0,0.47,0.14,0.79,0.41c0.32,0.27,0.71,0.61,1.16,1.01c0.46,0.4,1,0.83,1.64,1.3
			c0.64,0.47,1.38,0.9,2.22,1.3c0.84,0.4,1.81,0.73,2.91,1.01c1.09,0.27,2.34,0.41,3.73,0.41c1.91,0,3.63-0.29,5.13-0.87
			s2.78-1.37,3.81-2.37c1.04-1,1.83-2.19,2.38-3.57s0.82-2.85,0.82-4.42c0-1.71-0.35-3.11-1.04-4.22c-0.7-1.1-1.61-2.03-2.75-2.77
			c-1.14-0.74-2.43-1.36-3.88-1.86c-1.45-0.5-2.94-0.99-4.46-1.47c-1.53-0.48-3.02-1.01-4.46-1.61c-1.45-0.59-2.74-1.35-3.88-2.27
			c-1.14-0.92-2.06-2.07-2.75-3.45c-0.7-1.38-1.04-3.1-1.04-5.17c0-1.62,0.31-3.18,0.92-4.68c0.62-1.5,1.52-2.83,2.7-3.98
			c1.19-1.15,2.65-2.07,4.39-2.77c1.74-0.69,3.73-1.04,5.97-1.04c2.51,0,4.76,0.4,6.75,1.2c2,0.8,3.81,2.01,5.45,3.65
			L1017.14,547.52z"/>
		<path d="M387.06,657.37h-3.52v-48.33h3.52V657.37z"/>
		<path d="M412.13,609.16c0.18,0.08,0.38,0.26,0.58,0.53l31.29,41.87c-0.07-0.68-0.1-1.34-0.1-1.98v-40.54h3.07v48.33h-1.67
			c-0.52,0-0.95-0.23-1.26-0.68l-31.42-41.94c0.07,0.68,0.1,1.33,0.1,1.95v40.68h-3.04v-48.33h1.71
			C411.69,609.04,411.94,609.08,412.13,609.16z"/>
		<path d="M511.82,614.92c-0.2,0.39-0.5,0.58-0.89,0.58c-0.3,0-0.68-0.21-1.15-0.63c-0.47-0.42-1.1-0.89-1.9-1.4
			c-0.8-0.51-1.8-0.98-3-1.42c-1.2-0.43-2.68-0.65-4.44-0.65c-1.76,0-3.31,0.25-4.64,0.75c-1.34,0.5-2.46,1.18-3.36,2.05
			c-0.9,0.87-1.59,1.87-2.06,3.01c-0.47,1.14-0.7,2.33-0.7,3.59c0,1.64,0.35,2.99,1.04,4.06c0.7,1.07,1.61,1.98,2.75,2.73
			c1.14,0.75,2.43,1.38,3.88,1.9c1.45,0.51,2.94,1.02,4.46,1.52c1.53,0.5,3.02,1.05,4.46,1.66c1.45,0.6,2.74,1.36,3.88,2.27
			c1.14,0.91,2.06,2.03,2.75,3.36c0.7,1.33,1.04,2.99,1.04,4.97c0,2.03-0.35,3.93-1.04,5.72c-0.69,1.79-1.7,3.34-3.02,4.66
			c-1.32,1.32-2.94,2.36-4.85,3.13c-1.91,0.76-4.1,1.14-6.56,1.14c-3.19,0-5.93-0.56-8.23-1.69c-2.3-1.13-4.32-2.67-6.05-4.63
			l0.96-1.5c0.27-0.34,0.59-0.51,0.96-0.51c0.21,0,0.47,0.14,0.79,0.41c0.32,0.27,0.71,0.61,1.16,1.01c0.46,0.4,1,0.83,1.64,1.3
			c0.64,0.47,1.38,0.9,2.22,1.3c0.84,0.4,1.81,0.73,2.91,1.01c1.09,0.27,2.34,0.41,3.73,0.41c1.92,0,3.63-0.29,5.13-0.87
			s2.78-1.37,3.81-2.37c1.04-1,1.83-2.19,2.38-3.57c0.55-1.38,0.82-2.85,0.82-4.42c0-1.71-0.35-3.11-1.04-4.22
			c-0.7-1.1-1.61-2.03-2.75-2.77c-1.14-0.74-2.43-1.36-3.88-1.86c-1.45-0.5-2.94-0.99-4.46-1.47c-1.53-0.48-3.02-1.01-4.46-1.61
			c-1.45-0.59-2.74-1.35-3.88-2.27c-1.14-0.92-2.06-2.07-2.75-3.45c-0.69-1.38-1.04-3.1-1.04-5.17c0-1.62,0.31-3.18,0.92-4.68
			c0.62-1.5,1.52-2.83,2.7-3.98c1.19-1.15,2.65-2.07,4.39-2.77s3.73-1.04,5.97-1.04c2.51,0,4.76,0.4,6.75,1.2
			c2,0.8,3.81,2.01,5.45,3.65L511.82,614.92z"/>
		<path d="M535.59,637.9v19.47h-3.48v-48.33h12.47c5.67,0,9.94,1.24,12.82,3.72c2.88,2.48,4.32,6.02,4.32,10.62
			c0,2.12-0.39,4.06-1.18,5.84c-0.79,1.78-1.92,3.31-3.4,4.59c-1.48,1.29-3.28,2.29-5.4,3.01c-2.12,0.72-4.51,1.08-7.17,1.08H535.59
			z M535.59,635.1h8.98c2.14,0,4.05-0.3,5.74-0.89c1.69-0.59,3.11-1.41,4.29-2.46c1.17-1.05,2.07-2.28,2.7-3.71
			c0.63-1.42,0.94-2.98,0.94-4.66c0-3.71-1.14-6.57-3.43-8.57c-2.29-2-5.7-3.01-10.23-3.01h-8.98V635.1z"/>
		<path d="M610.94,657.37h-2.7c-0.32,0-0.58-0.09-0.79-0.26c-0.2-0.17-0.36-0.39-0.48-0.67l-5.7-14.04h-23.74l-5.67,14.04
			c-0.09,0.25-0.25,0.47-0.48,0.65c-0.23,0.18-0.5,0.27-0.82,0.27h-2.66l19.78-48.33h3.48L610.94,657.37z M578.6,639.81h21.65
			l-9.87-24.42c-0.16-0.39-0.32-0.82-0.48-1.31c-0.16-0.49-0.32-1.01-0.48-1.55c-0.16,0.55-0.32,1.06-0.48,1.55
			c-0.16,0.49-0.32,0.94-0.48,1.35L578.6,639.81z"/>
		<path d="M628.02,609.16c0.18,0.08,0.38,0.26,0.58,0.53l31.29,41.87c-0.07-0.68-0.1-1.34-0.1-1.98v-40.54h3.07v48.33h-1.67
			c-0.52,0-0.95-0.23-1.26-0.68l-31.42-41.94c0.07,0.68,0.1,1.33,0.1,1.95v40.68h-3.04v-48.33h1.71
			C627.58,609.04,627.83,609.08,628.02,609.16z"/>
		<path d="M688.95,657.37h-3.52v-48.33h3.52V657.37z"/>
		<path d="M734.95,614.92c-0.2,0.39-0.5,0.58-0.89,0.58c-0.3,0-0.68-0.21-1.15-0.63c-0.47-0.42-1.1-0.89-1.9-1.4
			c-0.8-0.51-1.8-0.98-3-1.42c-1.2-0.43-2.68-0.65-4.44-0.65c-1.76,0-3.31,0.25-4.64,0.75c-1.34,0.5-2.46,1.18-3.36,2.05
			c-0.9,0.87-1.59,1.87-2.06,3.01c-0.47,1.14-0.7,2.33-0.7,3.59c0,1.64,0.35,2.99,1.04,4.06c0.7,1.07,1.61,1.98,2.75,2.73
			s2.43,1.38,3.88,1.9c1.45,0.51,2.94,1.02,4.46,1.52c1.53,0.5,3.02,1.05,4.46,1.66c1.45,0.6,2.74,1.36,3.88,2.27
			c1.14,0.91,2.06,2.03,2.75,3.36c0.7,1.33,1.04,2.99,1.04,4.97c0,2.03-0.35,3.93-1.04,5.72c-0.69,1.79-1.7,3.34-3.02,4.66
			c-1.32,1.32-2.94,2.36-4.85,3.13c-1.91,0.76-4.1,1.14-6.56,1.14c-3.19,0-5.93-0.56-8.23-1.69c-2.3-1.13-4.32-2.67-6.05-4.63
			l0.96-1.5c0.27-0.34,0.59-0.51,0.96-0.51c0.21,0,0.47,0.14,0.79,0.41c0.32,0.27,0.71,0.61,1.16,1.01c0.46,0.4,1,0.83,1.64,1.3
			c0.64,0.47,1.38,0.9,2.22,1.3c0.84,0.4,1.81,0.73,2.91,1.01c1.09,0.27,2.34,0.41,3.73,0.41c1.92,0,3.63-0.29,5.13-0.87
			s2.78-1.37,3.81-2.37c1.04-1,1.83-2.19,2.38-3.57c0.55-1.38,0.82-2.85,0.82-4.42c0-1.71-0.35-3.11-1.04-4.22
			c-0.7-1.1-1.61-2.03-2.75-2.77c-1.14-0.74-2.43-1.36-3.88-1.86c-1.45-0.5-2.94-0.99-4.46-1.47c-1.53-0.48-3.02-1.01-4.46-1.61
			c-1.45-0.59-2.74-1.35-3.88-2.27c-1.14-0.92-2.06-2.07-2.75-3.45c-0.69-1.38-1.04-3.1-1.04-5.17c0-1.62,0.31-3.18,0.92-4.68
			c0.62-1.5,1.52-2.83,2.7-3.98c1.19-1.15,2.65-2.07,4.39-2.77s3.73-1.04,5.97-1.04c2.51,0,4.76,0.4,6.75,1.2
			c1.99,0.8,3.81,2.01,5.45,3.65L734.95,614.92z"/>
		<path d="M791.51,657.37H788v-23.16h-30.26v23.16h-3.52v-48.33h3.52v22.54H788v-22.54h3.52V657.37z"/>
	</g>
</g>
</svg>
