<?xml version="1.0" encoding="utf-8"?>
<!-- Generator: Adobe Illustrator 24.1.3, SVG Export Plug-In . SVG Version: 6.00 Build 0)  -->
<svg version="1.1" id="Capa_1" xmlns="http://www.w3.org/2000/svg" xmlns:xlink="http://www.w3.org/1999/xlink" x="0px" y="0px"
	 viewBox="0 0 1080 1080" style="enable-background:new 0 0 1080 1080;" xml:space="preserve">
<g id="XMLID_2_">
	<path id="XMLID_38_" d="M924.24,696.91c12.81-2.53,25.08-1.26,36.63,5.15c11.61,6.44,18.49,16.5,20.16,29.37
		c1.09,8.45,0.86,17.25-0.14,25.73c-1.04,8.84-4.34,17.17-10.16,24.3c-5.62,6.88-11.05,13.92-16.4,21.02
		c-2.9,3.85-5.44,7.96-9.36,13.74c9.67-1.04,17.51-1.56,25.24-2.82c5.43-0.88,10.15-0.82,12.55,3.4
		c8.55-9.38,16.77-18.49,25.11-27.5c6.81-7.36,14.01-14.37,20.55-21.95c7.06-8.18,7.19-17.61,2.34-27.58
		c-0.44,2.28-1.11,4.55-1.25,6.85c-0.22,3.72,0.06,7.46-0.15,11.18c-0.39,6.7-2.82,9.41-9.49,9.81c-9.44,0.57-18.91,0.85-28.37,0.95
		c-4.85,0.05-7.05-1.91-7.73-7.36c-1.45-11.5,0.26-22.71,3.17-33.93c3.51-13.51,11.98-22.13,24.68-26.44
		c29.05-9.86,60.92,6.96,61.32,40.97c0.22,18.18-3.7,34.44-16.23,48.4c-7.4,8.24-13.56,17.61-21.51,28.1
		c6.99-0.74,11.9-1.29,16.82-1.76c4.56-0.43,9.13-1.06,13.7-1.07c5.58-0.01,8.18,2.13,8.36,7.61c0.33,10.31,0.29,20.66-0.12,30.97
		c-0.24,5.98-2.66,8.13-8.62,8.63c-15.13,1.26-30.28,2.34-45.42,3.44c-8.29,0.6-16.57,1.3-24.87,1.62
		c-9.4,0.37-9.75-0.01-13.08-8.36c-8.55,0.97-16.98,2.16-25.45,2.83c-17.71,1.4-35.43,2.59-53.16,3.71
		c-7.6,0.48-10.7-1.56-11.75-8.24c-1.47-9.33-2.39-18.74-3.55-28.11c0,0,0.3-0.2,0.3-0.2l-0.25,0.26c-3.5,5.9-6.45,12.22-10.6,17.63
		c-18.16,23.68-42.65,17.76-57.04,2.23c-8.92-9.62-15.31-20.96-18.82-33.49c-3.62-12.93-5.95-26.23-8.75-39.38
		c-0.71-3.35-1.05-6.78-1.71-11.19c-8.87,16.94-23.33,28.88-32.52,46.6c7.55-0.81,13.68-1.45,19.81-2.14
		c1.13-0.13,2.24-0.52,3.37-0.71c11.51-1.89,14.74,0.71,14.81,12.35c0.05,8.32,0.11,16.67-0.44,24.96
		c-0.49,7.44-1.82,8.59-9.43,9.51c-9.39,1.14-18.8,2.16-28.23,2.83c-14.59,1.04-29.21,1.65-43.8,2.64
		c-4.55,0.31-8.52-0.66-9.32-5.45c-2.02-12.06-5.85-24.03-2.6-36.03c-12.13,6.85-24.24,13.73-36.39,20.52
		c-2.25,1.26-4.65,2.25-7.04,3.23c-9.06,3.72-13.12,2.08-16.88-6.72c-1.56-3.65-3.14-7.3-5.52-12.81
		c-0.48,8.58-5.06,11.75-10.55,14.07c-10.03,4.24-19.98,8.71-30.15,12.6c-9.29,3.55-11.79,2.73-17.66-5.06
		c-18.49-24.52-36.84-49.14-55.3-73.67c-1.69-2.25-3.79-4.2-5.7-6.29c-0.17-0.11-0.33-0.22-0.5-0.33c0.18,0.1,0.36,0.19,0.54,0.29
		c2.78,8.43,5.43,16.9,8.37,25.27c4.68,13.3,2.99,16.91-10.46,21.93c-6.63,2.47-13.17,5.15-20.3,7.94
		c7.85,15.58,15.19,30.12,22.51,44.67c1.29,2.56,2.66,5.09,3.78,7.73c2.77,6.51,1.55,11.18-4.75,14.47
		c-14.75,7.7-29.62,15.18-44.64,22.35c-7.41,3.54-12.29,0.85-15.77-8.03c-5.86-14.95-11.54-29.97-17.29-44.96
		c-6.15-16.07-12.27-32.15-18.46-48.2c-0.81-2.11-1.99-4.07-3.21-6.52c-5.69,0-11.3,0-17.84,0c-0.17,5.72-0.38,11.07-0.49,16.43
		c-0.14,7.17,0.03,14.36-0.34,21.52c-0.41,7.8-4.09,11.56-11.94,11.81c-12.05,0.38-24.11,0.43-36.17,0.28
		c-7.9-0.1-11.05-3.35-10.92-11.1c0.09-5.14,0.91-10.26,1.48-15.39c1.73-15.66,3.51-31.32,5.21-46.99c0.12-1.07-0.23-2.19-0.43-3.87
		c-8.97-0.66-17.79-2-26.58-1.82c-26.57,0.57-52.55-3.54-78.53-8.33c-12.67-2.34-25.62-3.28-38.19-6.03
		c-8.57-1.88-16.72-5.71-25-8.83c-3.21-1.21-6.14-3.23-9.39-4.29c-14.21-4.6-25.38-13.15-33.36-25.68
		c-2.39-3.76-4.52-7.92-5.69-12.18c-4.97-18.03-0.36-34.48,9.19-49.92c5.26-8.49,10.6-16.94,16.3-26.05
		c-7.41-0.64-13.92-1.76-20.42-1.67c-23.1,0.34-45.79-2.73-68.17-7.97c-11.11-2.6-22.34-5.54-32.73-10.11
		c-7.38-3.25-13.83-9.06-19.93-14.57c-2.45-2.21-3.35-6.57-4.12-10.13c-5.65-26.13-5.86-18.9,6.06-39.25
		c4.93-8.41,10.3-16.57,15.19-25.01c2.28-3.93,3.87-8.26,5.84-12.38c1.97-4.12,3.68-8.41,6.09-12.25
		c5.2-8.25,11.04-16.11,16.1-24.44c3.53-5.82,6.18-12.17,9.27-18.27c1.29-2.55,2.52-5.15,4.08-7.53
		c5.66-8.65,11.46-17.19,17.17-25.81c3.79-5.72,7.17-11.5,9.39-18.21c1.92-5.8,6.28-10.82,9.7-16.1
		c5.73-8.85,12.03-17.11,15.57-27.5c2.78-8.15,9.26-15.05,14.13-22.49c2.99-4.56,6.27-8.95,9-13.65c2.13-3.66,3.57-7.71,5.42-11.54
		c1.74-3.6,3.32-7.32,5.46-10.67c5.1-7.98,10.46-15.79,15.76-23.64c4.01-5.94,7.99-11.82,9.82-18.98c0.74-2.88,2.81-5.67,4.9-7.92
		c5.08-5.46,10.53-10.58,15.82-15.84c4.28-4.26,9.36-6.52,15.46-6.38c2.01,0.05,4.05,0.22,6.02-0.06
		c24.2-3.52,37.83,11.84,50.82,28.36c2.47,3.14,4.73,6.5,7.49,9.37c13.72,14.28,27.64,28.36,41.35,42.65
		c3.93,4.1,7.39,8.65,11.44,13.44c1.06-1.47,2.47-3.15,3.58-5c18.18-30.24,36.33-60.51,54.48-90.77c1.03-1.72,2.48-3.38,2.88-5.25
		c3.25-15.18,14.08-25.68,23.92-36.16c8.96-9.55,20.67-15.08,34.55-17.4c15.87-2.65,28.95,2.5,41.55,9.76
		c7.79,4.49,15.02,10.81,20.84,17.72c21.45,25.48,43.11,50.71,67.53,73.46c3.29,3.07,6.09,6.85,8.45,10.71
		c3.9,6.38,4.5,7.37,13.02,12.91c5.7-8.83,11.44-17.65,17.11-26.52c11.74-18.36,23.32-36.73,32.55-56.63
		c5.39-11.64,13.64-21.64,26.22-27.4c8.8-4.03,17.95-3.13,26.97-3.98c2.49-0.24,5.42,1.7,7.81,3.18
		c14.43,8.9,28.28,18.28,38.51,32.45c14.15,19.61,31.87,36.08,49.09,52.95c4.23,4.15,7.43,9.35,11.17,14.01
		c2.5,3.12,4.9,6.36,7.72,9.17c7.32,7.28,15.05,14.15,22.2,21.6c3.92,4.08,6.94,9,10.44,13.5c1.92,2.47,3.79,5.03,6.02,7.2
		c5.97,5.79,12.17,11.36,18.19,17.1c1.86,1.77,3.99,3.55,5.09,5.77c5.38,10.88,14.69,18.18,23.11,26.35
		c8.19,7.96,16.02,16,22.57,25.7c6.45,9.56,15.93,17.23,24.72,25.02c9.81,8.7,17.98,18.89,24.31,29.95
		c6.19,10.82,5.82,23.49-1.23,34.36c-7.38,11.39-16.73,20.87-29.83,26.29c-7.86,3.26-15.09,8.07-22.77,12.27
		c6.38,2.66,12.72,4.67,18.45,7.8c22.72,12.44,32.81,35.02,27.7,62.16c-4.14,21.99-12.37,42.34-26.01,60.3
		c-7.8,10.28-15.59,20.56-23.39,30.84c0,0-0.42,0.37-0.42,0.37L924.24,696.91z M448.72,728.03l-0.34-0.54l0.43,0.45
		c0.31,0.44,0.62,0.88,0.92,1.32C449.39,728.85,449.05,728.44,448.72,728.03z M626.25,798.55c0.57,1.16,1.15,2.33,1.72,3.49
		c0.58,1.71,1.15,3.41,1.73,5.12c0.57,1.16,1.14,2.33,1.71,3.49c1.15,2.86,2.3,5.71,3.46,8.57c0.27,0.46,0.54,0.93,0.82,1.39
		c-0.3-0.44-0.6-0.88-0.9-1.32c-1.15-2.85-2.3-5.71-3.46-8.56c-0.57-1.16-1.14-2.33-1.71-3.49c-0.58-1.71-1.16-3.41-1.73-5.12
		c-0.57-1.16-1.14-2.33-1.71-3.49c-0.16-1.01-0.33-2.02-0.49-3.02c-0.31,0.1-0.62,0.2-0.93,0.3
		C625.25,796.78,625.75,797.66,626.25,798.55z M722.69,790c8.78-8.96,18.04-17.51,26.22-26.98c8.56-9.9,9.1-16.64,4.13-29.64
		c-0.8,5.78-0.94,11.61-1.26,17.43c-0.4,7.22-2.76,9.63-9.91,10.23c-4.18,0.35-8.37,0.56-12.79,0.85
		C726.85,771.73,724.77,780.86,722.69,790L722.69,790z M893.21,814.06c10.37-14.87,23.9-26.81,36.57-39.57
		c3.8-3.83,7.11-8.25,10.04-12.79c4.43-6.87,4.31-16.9-0.58-26.13c-0.34,7.04-0.72,12.4-0.83,17.76
		c-0.2,9.24-1.39,11.07-10.66,12.07c-7.95,0.86-15.99,1.12-23.99,1.07c-3.52-0.02-7.03-1.45-10.55-2.25
		c-1.5-16.69-1.1-33.15,5.6-46.86c-4.05-4.79-7.34-8.67-10.96-12.95c-5.32,4.03-10.5,7.96-15.97,12.12
		c3.49,5.67,7.46,10.68,9.87,16.36c4.34,10.21,7.74,20.83,11.54,31.27c0.55,10.17,1.43,20.34,1.55,30.52
		c0.07,6.48-0.98,12.98-1.53,19.47c-0.35,0.47-0.7,0.93-0.19,0.25C892.88,815.21,893.04,814.63,893.21,814.06z M660.65,304.12
		c2.7,0.85,5.4,1.71,8.47,2.68c3.44-4.41,6.82-8.63,10.07-12.95c8.62-11.44,20.9-12.83,31.98-3.56c1.52,1.27,2.98,2.6,4.93,4.3
		c4.36-6.17,10.42-7.86,16.21-7.12c4.07-4.99,7.59-9.31,11.35-13.93c-13.29-14.01-26.84-28.3-40.79-43.01
		c-1.31,1.82-2.21,2.89-2.91,4.08c-11.44,19.55-22.9,39.1-34.23,58.72c-1.98,3.44-3.38,7.21-5.05,10.83l-0.45,0.38L660.65,304.12z
		 M526.3,691.74l0.3,0.36l-0.37-0.29c-0.61-2.19-1.04-4.45-1.86-6.57c-4.33-11.24-8.77-22.43-13.14-33.65
		c-3.78-9.69-1.69-14.75,8.17-17.75c20.91-6.37,40.8-15.03,60.38-24.72c21.57-10.68,43.51-20.46,67.95-23.42
		c15.57-1.89,29.56,1.04,42.75,9.09c2.15,1.31,4.33,2.56,6.83,4.03c16.16-12.95,32-25.63,47.98-38.44
		c-7.73-27.94,5.24-47.14,25.83-63.56c-2.36-2.96-4.16-5.49-6.24-7.76c-8.9-9.75-17.9-19.4-26.83-29.12
		c-19.98-21.77-39.97-43.54-59.9-65.36c-34.05-37.28-68.06-74.6-102.09-111.9c-22.43-24.59-44.82-49.2-67.3-73.75
		c-7.61-8.31-16.16-15.51-26.38-20.45c-14.99-7.25-29.64-6.42-43,3.51c-5.89,4.38-11.3,9.88-15.57,15.85
		c-6.82,9.55-12.65,19.82-18.63,29.94c-36.5,61.74-72.97,123.49-109.37,185.29c-45.73,77.62-91.4,155.27-137.05,232.93
		c-4.36,7.42-8.82,14.82-12.52,22.57c-7.82,16.35-4.15,31.7,10.07,42.99c4.24,3.37,8.84,6.45,13.66,8.89
		c28.4,14.35,59.25,19.44,90.37,23.02c19.06,2.19,38.25,3.48,57.41,4.66c9.91,0.61,19.89,0.11,30.48,0.11
		c0.89-8.23,1.7-15.79,2.54-23.57c-8.71-2.85-10.82-8.83-10.72-16.44c0.16-12.63-0.16-25.26-0.11-37.89
		c0.04-10.05,3.33-13.43,12.98-14.55c15.36-1.77,30.77-3.33,46.02-5.84c6.91-1.14,12.81-1.16,17.81,4.92
		c1.88-7.14,7.08-8.8,12.48-10.24c14.95-4,29.95-7.83,44.81-12.15c5.82-1.69,10.03-0.27,13.7,4.18c4.93,5.97,9.89,11.93,14.93,17.8
		C510.51,673.61,518.42,682.66,526.3,691.74z M796.3,732.34c5.26-13.54,11.98-26.56,26.66-31.82c14.64-5.24,28.88-3.74,40.64,8.44
		c8.92-6.63,17.31-12.86,26.54-19.71c4.6,5.15,8.54,9.57,13.1,14.67c1.99-2.29,3.55-3.94,4.95-5.72
		c11.52-14.65,23.39-29.04,34.41-44.07c10.85-14.8,16.82-31.89,20.22-49.83c4.97-26.29-5.25-45.3-30.25-54.49
		c-8.74-3.21-18.31-4.93-27.63-5.64c-21.5-1.65-42.96,0.53-64.42,2.2c-7.94,0.62-16-0.03-23.99-0.33c-3.87-0.14-8.37-1.3-8.57-5.55
		c-0.15-3.17,2.56-6.53,4.21-9.69c0.49-0.94,1.65-1.56,2.57-2.25c6.87-5.18,13.65-10.48,20.66-15.49
		c8.6-6.14,17.38-12.03,26.97-18.64c-8.91-11.41-17.44-22.35-26.3-33.69c-7.73,5.57-14.94,10.27-21.61,15.65
		c-16.06,12.97-32.39,25.67-47.59,39.6c-12.69,11.63-16.65,26.43-9.65,43.08c0.55,1.3,0.94,2.67,1.62,4.62
		c-20.99,16.72-41.95,33.42-62.95,50.15c-1.59-1.39-2.49-2.08-3.27-2.88c-8.1-8.34-17.72-13.32-29.48-14.28
		c-10.72-0.88-21.33-0.12-31.38,3.34c-14.07,4.85-28.03,10.18-41.58,16.32c-19.57,8.87-38.49,19.2-59.31,25.12
		c-3.22,0.91-6.31,2.25-10.31,3.69c12.88,34,26.34,66.91,38.41,100.32c-0.57,0.3-1.13,0.6-1.7,0.89
		c-26.31-31.3-52.62-62.59-78.79-93.72c-17.2,5.14-34.03,8.24-50.69,14.45c5.08,16.64,7.19,33.1,13.26,49.02
		c5.49-0.98,10.16-1.81,15.52-2.76c10.09,33.08,18.53,66.23,29.04,99.81c11.39-4.55,21.58-8.63,31.87-12.75
		c-6.06-17.76-11.81-34.25-17.31-50.82c-5.39-16.23-11.19-32.36-14.17-49.39c32.57,48.73,67.74,95.29,103.62,142.04
		c12.39-5.28,23.88-10.17,35.67-15.19c-19.47-48.38-34.62-97.23-47.21-147c3.66-2.7,6.52-4.81,10.13-7.47
		c22.25,54.54,43.12,108.35,65.52,162.83c12.36-7.05,23.62-13.28,34.7-19.83c19.54-11.55,24.87-31,28.65-51.35
		c-11.58-3.79-11.88-4.21-11.82-16.59c0.01-2.58-0.19-5.2,0.17-7.74c1.92-13.66,3.67-27.37,14.44-37.75
		c1.59-1.54,2.33-4.53,2.45-6.89c0.18-3.69-0.25-7.46-0.89-11.12c-1.14-6.49-2.72-12.9-3.94-19.37c-0.58-3.09-1.17-6.45,4.3-7.65
		c1.75,1.97,3.9,4.17,5.79,6.57c5.68,7.21,11.47,14.35,16.8,21.82c2.91,4.09,6.24,5.78,11.3,6.38c14.03,1.66,26.03,7.71,33.1,20.45
		C792.2,718.47,793.84,725.6,796.3,732.34z M221.58,347.96c-7.98,10.25-15.28,19.63-22.63,29.08c-5.23-2.71-9.51-4.93-14.32-7.42
		c-13.72,10.74-27.32,21.39-40.93,32.04c-0.47-0.42-0.94-0.83-1.41-1.25c1.22-2.46,2.3-5,3.68-7.37c5.19-8.93,10.48-17.8,15.73-26.7
		c18.06-30.66,36-61.39,54.24-91.94c8.73-14.63,15.29-15.08,27.22-2.18c21.44,23.16,42.57,46.61,63.87,69.9
		c1.86,2.03,3.96,3.85,6.43,6.24c3.5-6.15,6.56-11.52,9.73-17.1c-23.47-25.66-46.21-50.71-69.24-75.5
		c-3.24-3.48-7.65-6.05-11.89-8.39c-10.98-6.05-21.71-5.15-31.02,3.26c-4.61,4.17-8.73,9.21-11.98,14.52
		c-11.24,18.35-22.02,36.98-32.94,55.52c-37.98,64.55-75.95,129.1-113.9,193.67c-9.3,15.83-18.85,31.53-27.65,47.64
		c-6.79,12.43-3.93,23.98,8.17,31.22c8.26,4.95,17.4,8.98,26.67,11.62c28.61,8.15,58.19,9.38,87.71,10.92
		c6.66,0.35,10.26-1.97,13.62-7.7c46.84-79.98,93.95-159.8,140.96-239.67c1.83-3.1,3.41-6.35,5.3-9.89
		c-10.69-6.88-20.48-13.18-30.63-19.71c-2.76,6.25-5.15,11.65-7.74,17.5c-4.41-1.15-8.14-2.13-12.07-3.16
		c-2.51,5.18-4.79,9.9-7.41,15.32C239.63,361.39,231.17,355.09,221.58,347.96z M742.45,306.59c-4.68-1.29-8.18-2.26-12.03-3.32
		c-2.35,5.02-4.59,9.8-7.27,15.51c-9.84-7.19-18.69-13.67-27.68-20.25c-8.87,9.5-14.53,20.32-23.27,28.62
		c-4.98-2.62-9.24-4.87-13.64-7.18c-2.58,1.91-4.92,3.54-7.15,5.32c-0.84,0.67-1.43,1.68-2.57,3.06
		c46.73,51.09,93.31,102.03,140.13,153.21c2.47-1.77,4.3-3.07,6.11-4.4c11.12-8.12,22.11-16.44,33.41-24.3
		c6.98-4.86,11.89-4.04,17.2,2.53c8.65,10.71,17.14,21.57,25.43,32.56c3.98,5.27,3.07,10.98-2.16,15.14
		c-3.58,2.85-7.56,5.2-11.34,7.82c-8.2,5.68-16.37,11.39-24.43,17c1.79,6.4,5.84,7.36,10.86,7.07c13.74-0.8,27.49-1.42,41.23-2.19
		c1.7-0.09,3.46-0.36,5.04-0.96c15-5.7,30.15-11.07,44.88-17.41c10.29-4.43,19.64-10.71,27.43-19.01
		c6.28-6.69,8.23-14.72,5.43-23.11c-1.56-4.68-5.04-8.97-8.44-12.73c-20.21-22.35-40.66-44.47-61.01-66.69
		c-36.81-40.21-73.62-80.43-110.39-120.68c-13.74-15.04-27.27-30.27-41.07-45.25c-7.58-8.23-15.13-16.56-23.43-24.04
		c-14.99-13.51-32.49-11.72-44.94,4.05c-2.84,3.59-5.37,7.46-7.71,11.4c-13.17,22.21-26.26,44.47-39.34,66.74
		c-2.87,4.88-5.58,9.86-8.48,14.99c4.61,5.01,8.75,9.51,13.42,14.59c3.11-5.24,5.59-9.4,8.06-13.58
		c15.17-25.7,30.1-51.54,45.6-77.04c8.5-13.99,13.83-14.36,25.18-2.58c10.95,11.36,21.6,23.02,32.27,34.65
		c18.63,20.29,37.21,40.63,55.75,61c2.77,3.05,5.22,6.39,7.81,9.6c-0.4,0.43-0.8,0.86-1.19,1.3
		c-19.96-12.95-39.92-25.89-60.07-38.96C747.32,295.39,745.06,300.59,742.45,306.59z M363.08,723.99
		c-3.82,39.49-8.76,77.95-12.27,117.48c13.09,0.03,24.92,0.21,36.81-0.39c1.27-17.15-0.13-33.19,1.7-49.45c12.53,0,24.15,0,36.36,0
		c13.9,36.22,27.69,72.17,41.46,108.05c10.88-3.5,38.51-17.85,44.03-23.02c-34.74-68.65-69.62-137.59-104.55-206.63
		c-18.81,2.47-36.88,4.84-54.76,7.19c-1.64,11.63-1.08,38.88,0.84,44.86C355.7,722.65,358.74,723.2,363.08,723.99z M887.92,787.93
		c-0.65-5.35-1.18-11.05-2.05-16.7c-3.46-22.4-11.96-42.09-28.89-58.06c-12.53-11.81-34.35-8.88-44.08,4.27
		c-10.85,14.67-14.14,31.57-13.24,48.79c0.76,14.44,4.39,28.86,7.93,42.99c3.29,13.15,9.49,25.26,18.81,35.34
		c13.81,14.93,32.72,14.14,45.06-1.99c3.61-4.72,6.52-10.14,8.91-15.61C885.71,814.68,886.46,801.43,887.92,787.93z M1066.22,854.9
		c0-11.23,0-21.14,0-31.76c-14.35,0.25-27.9,4.75-42.92,3.26c1.83-3.84,2.9-7.13,4.79-9.85c7.38-10.57,14.35-21.52,22.72-31.27
		c11.03-12.84,15.07-27.41,14.22-43.77c-0.45-8.72-2.34-16.97-8.59-23.74c-10.16-11-22.94-13.97-36.92-11.24
		c-13.82,2.7-23.22,10.92-25.82,25.42c-1.26,7.04-2.32,14.13-3.19,21.23c-0.26,2.13,0.45,4.37,0.7,6.46c9.97,0,19.24,0,29.12,0
		c0.25-3.79,0.09-6.67,0.69-9.38c1.4-6.37,2.44-12.98,5.01-18.9c2.29-5.28,7.38-5.03,10.85-0.29c0.84,1.14,1.59,2.43,2.02,3.77
		c4.24,13.49,5,26.68-5.16,38.08c-7.43,8.34-15.53,16.06-23.03,24.35c-6.32,6.99-12.88,13.94-18.03,21.77
		c-3.15,4.79-5.2,11.18-5.31,16.9c-0.15,7.85,2.01,15.74,3.28,24.26C1016.07,858.43,1040.83,856.69,1066.22,854.9z M931.26,825.76
		c3.7-6.85,5.91-12.09,9.12-16.63c7.11-10.06,14.5-19.94,22.19-29.56c12.38-15.48,13.8-33.07,9.57-51.31
		c-3.07-13.27-12.73-20.96-25.9-23.36c-14.23-2.6-28.25-1.08-37.5,11.3c-9.18,12.28-9.18,27.06-7.85,42.77
		c10.22-0.63,19.5-1.21,29.7-1.84c0-4.43-0.36-7.85,0.09-11.17c0.65-4.77,1.64-9.54,2.97-14.17c0.96-3.35,3.09-7.32,6.83-6.53
		c2.72,0.57,4.83,4.2,7.1,6.58c0.54,0.57,0.67,1.57,0.91,2.39c4.07,14.06,3.42,27.26-7.17,38.57c-5.68,6.07-11.39,12.1-17.17,18.07
		c-4.19,4.32-8.46,8.57-12.8,12.73c-16.04,15.39-17.24,33.79-11.05,54.43c24.81-1.75,49.57-3.5,74.49-5.27c0-10.75,0-20.84,0-31.55
		c-7.62,0.69-14.44,1.23-21.24,1.94C946.84,823.85,940.17,824.71,931.26,825.76z M745.1,821.34c1.9-4.28,2.68-7.07,4.23-9.35
		c6.59-9.7,12.91-19.67,20.28-28.75c8.84-10.89,16.19-22.12,17.61-36.52c2.36-23.92-5.57-43.38-32.26-46.88
		c-12.74-1.67-25.31,1.22-33.08,12.17c-8.76,12.34-9.18,27.13-8.69,41.34c10.27,0,19.6,0,30.04,0c0-4.01-0.4-7.14,0.09-10.12
		c0.87-5.32,1.98-10.64,3.56-15.79c1-3.25,2.98-7.18,7.01-6.24c2.53,0.59,5.45,3.45,6.45,5.98c5.07,12.82,6.55,25.76-2.96,37.39
		c-5.79,7.08-12.27,13.6-18.4,20.4c-7.84,8.7-16.22,17-23.32,26.28c-10.07,13.16-5.54,27.55-2.36,42.74
		c25.2-1.92,49.6-3.78,74.34-5.67c0-11.08,0-20.93,0-31.47C773.68,818.33,760.4,819.73,745.1,821.34z M270.44,323.25
		c-13.48-14.02-27.22-28.32-42.31-44.01c-8.92,28.84-30.36,48.3-41.97,74.41c3.06,0.76,5.7,1.42,8.48,2.12
		c4.23-5.05,7.94-9.76,11.95-14.21c8.96-9.94,20.11-10.55,30.32-1.85c1.49,1.27,3.05,2.47,3.74,3.03c6.72-2.7,12.66-5.09,18.35-7.38
		C262.64,331.51,266.3,327.63,270.44,323.25z M734.37,690.06c-0.34,0.11-0.68,0.22-1.03,0.33c0.31,1.12,0.63,2.24,0.94,3.37
		c0.44-0.16,0.88-0.31,1.32-0.47C735.19,692.22,734.78,691.14,734.37,690.06z"/>
	<path id="XMLID_35_" d="M645.05,404c-35.64-23.3-71.27-46.6-107.45-70.26c-3.88,9.67-7.36,18.33-11.04,27.49
		c-6.85-2.06-12.77-3.83-19.4-5.83c-3.54,8.41-6.83,16.2-10.69,25.35c-14.89-11.19-28.96-21.76-43.78-32.9
		c-11.58,15.07-23,29.93-34.78,45.25c-7.75-4.19-14.72-7.96-22.45-12.15c-24.23,19.23-48.31,38.34-72.4,57.45
		c-0.53-0.44-1.06-0.87-1.59-1.31c1.02-2.16,1.87-4.42,3.08-6.47c37.78-64.3,75.51-128.63,113.5-192.81
		c4.34-7.34,9.65-14.26,15.41-20.56c5.54-6.08,11.56-6.6,18.69-2.28c4.6,2.78,8.9,6.35,12.59,10.28
		c16.9,17.97,33.59,36.15,50.26,54.34c15.31,16.71,30.44,33.57,45.74,50.29c20.91,22.86,41.92,45.64,62.85,68.47
		c1.11,1.22,1.96,2.68,2.92,4.03C646.02,402.93,645.53,403.46,645.05,404z M376.41,374.81l-0.05-0.05c0.58-0.58,1.15-1.17,1.73-1.75
		c12.01-10.11,24.32-6.75,36.94-0.4c1.64-2.18,3.19-4.2,4.7-6.26c6.25-8.57,12.31-17.29,18.76-25.71
		c6.94-9.06,17.24-10.4,26.45-3.63c4.38,3.22,8.49,6.82,12.74,10.23c3.91,3.13,7.84,6.24,12.23,9.73
		c2.79-6.47,3.65-13.54,10.35-15.13c5.58-1.33,11.59-0.86,17.7-1.21c1.3-3.48,2.53-6.97,3.89-10.42c2.17-5.49,6.02-8.35,12.03-9.67
		c6.67-1.47,12.43-0.07,18.28,2.49c0.57,0.58,1.14,1.15,1.71,1.73l0.32,0.31c0,0-0.39-0.24-0.39-0.24
		c-0.57-0.57-1.15-1.15-1.72-1.72c-0.81-1.17-1.47-2.49-2.45-3.5c-24.04-24.66-45.94-51.19-68.12-77.49
		c-4.52-5.36-10.52-9.49-16.78-15.01c-4.32,4.93-9.34,8.58-11.48,13.48c-9.25,21.2-22.51,39.9-35.14,59.03
		c-1.72,2.61-2.98,5.52-4.39,8.33c-2.81,5.58-5.12,11.48-8.46,16.72c-9.95,15.63-21.79,30.17-27.1,48.4
		C377.58,373.66,377,374.24,376.41,374.81z"/>
	<path id="XMLID_34_" d="M360.08,635.41c-4.18,5.75,0.19,14.01-5.04,19.81c-5.49-4.69-13.18-20-14.37-27.87
		c2.88,0,2.88,0,12.49,16.3c1.07-6.57,2.04-12.57,3.18-19.61c8.73,2.28,7.84,10.88,12.11,15.84c4.99-5.07-0.77-14.12,6.45-18.57
		c2.14,6.09-0.03,24.73-3.61,31.08C363.72,649.21,365.04,640.12,360.08,635.41z"/>
	<path id="XMLID_33_" d="M485.55,616.11c-1.09-6.21-2.15-12.22-3.17-18.25c-0.03-0.16,0.37-0.39,0.57-0.59
		c4.79,2.25,8.11,11.31,10.01,28.08c-11.08,0.38-14.19-11.15-22.46-14.53c0,6.6,5.48,12.47,2.85,19.61
		c-4.86-3.06-9.12-15.99-9.56-28.89C473.99,602.26,477.67,612.4,485.55,616.11z"/>
	<path id="XMLID_30_" d="M588.83,583.7c0.07,8-5.47,13.74-13.28,13.74c-7.85,0.01-14.77-7.71-15.11-16.83
		c-0.29-7.8,6.17-14.49,13.95-14.43C581.9,566.24,588.75,574.55,588.83,583.7z M566.12,580.09c0.05,6.6,5.12,12.91,10.21,12.7
		c3.78-0.15,7.55-4,7.7-7.86c0.25-6.37-5.41-13.51-10.63-13.39C568.65,571.65,566.08,574.67,566.12,580.09z"/>
	<path id="XMLID_27_" d="M498.87,622.83c-2.88-9.45-5.58-18.31-8.21-26.92c8.06-5.36,16.04-6.06,21.22-2.27
		c4.88,3.57,7.58,10.91,5.94,16.76C515.33,619.29,508.22,621.58,498.87,622.83z M502.57,616.9c6.77-0.78,10.14-3.95,10.6-8.89
		c0.4-4.32-1.54-8.37-5.65-10.78c-3.64-2.13-6.97-1.87-10.35,1.79C498.93,604.84,500.71,610.76,502.57,616.9z"/>
	<path id="XMLID_24_" d="M554.3,591.46c3.76,3.5,6.8,6.34,10.52,9.81c-8.34,2.77-10.87-5.58-17.21-6.36
		c0.72,4.11,1.4,8.04,2.15,12.36c-5.71-1.77-9.35-9.69-12.9-26.7c5.19-2.39,10.17-6.78,16.33-2.41
		C558.21,581.72,556.95,586.53,554.3,591.46z M546.25,591.12c2.53-2.82,4.02-4.49,5.47-6.11c-2.98-4.39-5.77-3.72-9.26-1.75
		C543.58,585.59,544.5,587.5,546.25,591.12z"/>
	<path id="XMLID_23_" d="M399.35,633.5c-0.4,5.52-0.69,9.47-0.98,13.43c-0.69,0.12-1.38,0.24-2.06,0.35
		c-0.9-1.47-2.28-2.83-2.63-4.41c-4.22-19.35-4.18-19.35-1.74-24.83c4.81,1.81,2.76,6.81,4.58,10.03
		c5.42-3.34,5.63-11.95,14.66-13.42c-3.09,5.47-5.52,9.78-8.9,15.77c4.54,3.5,9.25,7.14,14.66,11.31
		c-5.45,3.67-7.69,0.79-10.05-1.29C404.61,638.44,402.43,636.35,399.35,633.5z"/>
	<path id="XMLID_22_" d="M529.56,608.06c3.99,0,7.12,0,11.56,0c-4.01,5.62-9.01,5.23-14.43,7.11c-3.29-9.36-6.36-18.09-9.47-26.9
		c4.79-3.98,9.19-6.27,15.02-4.41c-0.14,5.09-10.99,3.23-6.18,10.87c3.1,0,6.24,0,11.27,0c-2.6,2.24-3.68,3.33-4.92,4.18
		c-1.13,0.78-2.44,1.31-4.29,2.26C528.63,603.6,529.11,605.9,529.56,608.06z"/>
	<path id="XMLID_21_" d="M458.75,607.02c-2.78,1.21-5.57,2.42-8.85,3.85c0.25,1.47,0.52,3.06,0.85,4.97
		c3.34,0.15,6.49,0.3,9.63,0.44c0.18,0.61,0.36,1.22,0.53,1.83c-2.52,1.43-5.04,2.86-8.19,4.65c0.46,2.16,0.96,4.53,1.5,7.08
		c3.96,0,7.38,0,12.03,0c-4.51,5.96-9.83,4.72-15.17,5.8c-4.3-8.87-5.19-18.21-7.82-27.27c5.08-3.22,9.62-5.38,14.95-3.46
		C458.39,605.62,458.57,606.32,458.75,607.02z"/>
	<path id="XMLID_20_" d="M428.03,638.17c4.13-2.9,10.09-0.77,11.18-6.75c-0.49-3.91-3.66-4.27-6.79-5.11
		c-6.97-1.86-9.82-5.05-8.99-9.47c0.93-4.91,6.52-8.35,12.72-7.68c0.67,0.07,1.27,0.88,2.78,1.99c-2.1,1.19-3.6,2.1-5.15,2.91
		c-1.67,0.88-3.38,1.67-5.97,2.93c1.89,1.67,2.9,2.95,4.22,3.63c1.5,0.77,3.32,0.87,4.92,1.48c6.87,2.61,9.43,7.21,7,12.37
		C441.43,639.83,435.43,641.52,428.03,638.17z"/>
	<path id="XMLID_19_" d="M422.27,643.88c-1.61-2.45-2.92-3.63-3.22-5.04c-1.69-7.81-3.2-15.66-4.57-23.53
		c-0.12-0.71,1.2-1.66,1.89-2.56c3.08,3.35,7.36,17.29,7.85,25.7C424.3,639.81,423.26,641.24,422.27,643.88z"/>
	<path id="XMLID_18_" d="M386.91,649.81c-1.36-1.22-3.25-2.07-3.43-3.2c-1.39-8.67-4.33-17.25-3.35-27.27
		C385.9,624.72,389.33,641.39,386.91,649.81z"/>
	<path id="XMLID_14_" d="M764.1,569.39c14.47,6.14,29.61,8.7,45.24,8.16c6.86-0.24,13.7-1.37,20.56-1.68
		c15.74-0.7,31.5-1.56,47.25-1.49c6.44,0.03,13.13,1.54,19.27,3.65c16.83,5.78,21.76,22.07,10.37,35.62
		c-8.27,9.84-17.24,19.35-27.13,27.52c-22.76,18.82-46.26,36.74-69.47,55c-2.44,1.92-5,3.7-8.39,6.2
		c-7.06-8.62-13.87-16.93-21.36-26.07c14.68-10.67,31-17.19,45.98-27.73c-7.92-11.42-15.53-22.39-23.69-34.16
		c-12.8,12.62-25.15,24.79-38.44,37.89c-6.5-8.24-12.26-15.54-18.77-23.78c7.19-5.71,13.8-11.02,20.47-16.25
		c6.72-5.27,13.49-10.47,20.55-15.94c-7.92-9.41-15.24-18.12-22.57-26.83L764.1,569.39z M803.63,687.16
		c3.33-2.54,5.62-4.22,7.85-5.99c19.1-15.12,37.85-30.71,57.45-45.15c6.9-5.09,8.13-10.68,6.46-17.65
		c-1.11-4.63-3.18-9.26-5.79-13.24c-3.28-4.99-7.76-9.17-11.36-13.98c-3.41-4.55-7.4-6.47-13.23-5.95
		c-15.67,1.4-31.38,2.32-47.07,3.48c-0.43,0.03-0.82,0.6-1.23,0.93c2.5,9.35,1.82,11.34-6.1,17.45
		c-8.17,6.3-16.34,12.61-24.57,18.83c-1.79,1.35-3.84,2.34-5.93,3.6c2.71,3.1,3.92,4.49,6.23,7.13c2.22-2.88,3.77-5.35,5.76-7.39
		c7.21-7.39,14.46-14.74,21.9-21.89c5.63-5.42,12.48-5.75,16.5-0.33c8.86,11.97,17.45,24.17,25.64,36.61
		c3.68,5.59,1.95,10.96-3.74,14.8c-3.32,2.23-6.95,3.99-10.44,5.97c-8.16,4.65-16.31,9.3-25.16,14.35
		C799.22,681.74,801.13,684.08,803.63,687.16z M892.3,614.15c2.33-2.76,5.49-5.72,7.69-9.28c3.64-5.9,1.92-12.3-4.19-15.36
		c-6.65-3.34-13.72-5.46-21.93-3.78C880.09,595.31,886.05,604.5,892.3,614.15z"/>
	<path id="XMLID_10_" d="M616.04,643.63c11.58-7.4,22.87-8.92,34.39-6.99c10.99,1.84,17.87,9.81,23.18,18.97
		c8.16,14.07,12.39,29.51,14.7,45.48c3.86,26.68,0.81,52.51-10.04,77.29c-0.96,2.18-2.31,4.2-4.55,8.21
		C654,737.7,635.1,690.86,616.04,643.63z M630.11,649.27c10.72,26.54,21.2,52.51,32,79.27c5.89-1.19,11.08-2.24,17.14-3.46
		c-0.6-7.01-1.07-13.21-1.67-19.4c-1.58-16.15-5.53-31.64-14.08-45.59C655.39,646.86,646.67,644.01,630.11,649.27z M668.35,744.18
		c1.86,4.51,3.37,8.17,4.87,11.83c0.66-0.14,1.32-0.28,1.98-0.42c0.59-4.25,1.18-8.49,1.82-13.11c-2.16,0-3.54-0.17-4.86,0.05
		C671.13,742.71,670.18,743.36,668.35,744.18z"/>
	<path id="XMLID_9_" d="M762.29,567.79c0.6,0.53,1.2,1.07,1.8,1.6l-0.12,0.13c-0.54-0.6-1.07-1.2-1.61-1.8L762.29,567.79z"/>
	<polygon id="XMLID_8_" points="762.36,567.72 761.97,567.38 762.29,567.79 	"/>
	<path id="XMLID_7_" d="M388.85,766.61c0.26-18.01,3.5-34.33,5.07-51.38c4.5,4.91,16.23,33.31,19.43,46.73
		C405.81,765.06,397.6,764.25,388.85,766.61z"/>
	<path id="XMLID_4_" d="M844.11,835.07c-1.9-2.6-4.39-4.75-5.26-7.42c-7.26-22.22-12.32-44.82-7.9-68.33
		c1.25-6.66,4.11-13.04,6.43-19.47c1.11-3.07,3.19-6.39,6.65-5.53c2.6,0.64,5.35,3.28,6.69,5.76c2.15,3.97,3.66,8.44,4.62,12.88
		c4.44,20.55,6.77,41.24,1.96,62.08C855.5,822.85,853.03,830.44,844.11,835.07z M846.29,822.55c8.48-25.95,6.32-51.61-2.15-77.1
		C832.12,771.49,837.78,797.06,846.29,822.55z"/>
</g>
</svg>
